<?xml version="1.0" encoding="UTF-8"?>
<svg version="1.1" xmlns="http://www.w3.org/2000/svg" width="1080" height="1080">
<path d="M0 0 C1.19012695 0.00580078 1.19012695 0.00580078 2.40429688 0.01171875 C3.19384766 0.00785156 3.98339844 0.00398438 4.796875 0 C10.71353554 0.01008808 10.71353554 0.01008808 12.96679688 1.13671875 C14.38347789 1.15655228 15.80105968 1.12959623 17.21679688 1.07421875 C21.21890216 1.02939517 24.21864527 1.63745811 27.96679688 3.13671875 C28.97742188 3.44609375 29.98804688 3.75546875 31.02929688 4.07421875 C35.9426296 5.85138165 40.16737522 8.54837608 43.96679688 12.13671875 C44.65429688 14.82421875 44.65429688 14.82421875 44.96679688 17.13671875 C45.62679687 17.46671875 46.28679687 17.79671875 46.96679688 18.13671875 C47.14678968 23.35651003 46.93774495 27.20934856 44.96679688 32.13671875 C44.30679688 32.13671875 43.64679688 32.13671875 42.96679688 32.13671875 C42.81210937 33.09578125 42.81210937 33.09578125 42.65429688 34.07421875 C42.31398438 35.09515625 42.31398438 35.09515625 41.96679688 36.13671875 C40.97679687 36.46671875 39.98679687 36.79671875 38.96679688 37.13671875 C38.67289063 37.73226562 38.37898437 38.3278125 38.07617188 38.94140625 C36.62035019 41.82229282 34.73298746 43.2563911 32.21679688 45.26171875 C31.37632812 45.94492187 30.53585937 46.628125 29.66992188 47.33203125 C26.8310258 49.2273636 24.23787129 50.20895788 20.96679688 51.13671875 C20.96679688 51.79671875 20.96679688 52.45671875 20.96679688 53.13671875 C18.98679687 54.12671875 17.00679687 55.11671875 14.96679688 56.13671875 C11.86710413 54.07025692 9.59629829 51.76622017 6.96679688 49.13671875 C5.31815142 47.78116582 3.65675693 46.44040222 1.96679688 45.13671875 C1.96679688 45.79671875 1.96679688 46.45671875 1.96679688 47.13671875 C0.07079318 46.82525403 -1.824999 46.51250158 -3.72070312 46.19921875 C-4.77644531 46.02519531 -5.8321875 45.85117187 -6.91992188 45.671875 C-8.78706894 45.35092249 -10.64973939 44.99797366 -12.49804688 44.58203125 C-20.4489822 43.18541087 -28.40638253 43.64971204 -36.03320312 46.13671875 C-38.47070312 45.76171875 -38.47070312 45.76171875 -40.03320312 45.13671875 C-40.03320312 45.79671875 -40.03320312 46.45671875 -40.03320312 47.13671875 C-41.64257812 48.25 -41.64257812 48.25 -43.78320312 49.44921875 C-48.49342895 52.27036108 -51.00963583 55.60136781 -54.03320312 60.13671875 C-55.11869591 68.747599 -54.79431011 75.92654921 -49.68164062 83.1875 C-47.66649294 85.57034051 -45.63084395 87.4049582 -43.03320312 89.13671875 C-41.33025526 90.42339047 -39.65374124 91.74768608 -38.03320312 93.13671875 C-38.03320312 93.79671875 -38.03320312 94.45671875 -38.03320312 95.13671875 C-37.33195313 95.21921875 -36.63070312 95.30171875 -35.90820312 95.38671875 C-32.35460201 96.31374513 -30.04227839 98.04878898 -27.03320312 100.13671875 C-25.06020197 101.18898603 -23.05643925 102.18460763 -21.03320312 103.13671875 C-20.49034668 103.47018311 -19.94749023 103.80364746 -19.38818359 104.1472168 C-11.49165343 108.51003469 -2.70244648 107.60721591 6.02929688 107.44921875 C7.65493648 107.43770549 9.28058934 107.42792684 10.90625 107.41992188 C12.47983168 107.40649625 14.05340144 107.39157284 15.62695312 107.375 C16.34488541 107.36761307 17.06281769 107.36022614 17.80250549 107.35261536 C21.27132124 107.28819128 24.65038452 107.08725344 28.09033203 106.62573242 C31.56733754 106.1871103 34.83182872 106.03474935 38.33007812 106.07421875 C40.03067383 106.08582031 40.03067383 106.08582031 41.765625 106.09765625 C42.92513672 106.11054688 44.08464844 106.1234375 45.27929688 106.13671875 C47.60867786 106.16219038 49.93811271 106.18323614 52.26757812 106.19921875 C53.29020752 106.21082031 54.31283691 106.22242188 55.36645508 106.234375 C58.0820319 106.25408605 58.0820319 106.25408605 60.96679688 105.13671875 C65.54547811 104.8472573 70.13000779 104.85889709 74.71679688 104.82421875 C75.98007812 104.79521484 77.24335937 104.76621094 78.54492188 104.73632812 C85.56115884 104.68842315 90.29567698 104.83244062 95.96679688 109.13671875 C95.96679688 110.12671875 95.96679688 111.11671875 95.96679688 112.13671875 C96.62679688 112.46671875 97.28679687 112.79671875 97.96679688 113.13671875 C98.92522478 116.89670517 99.16292451 119.45027204 98.09179688 123.19921875 C95.09056131 127.34798556 91.31965859 129.54336177 86.96679688 132.13671875 C85.99742187 132.75546875 85.02804687 133.37421875 84.02929688 134.01171875 C81.96679688 135.13671875 81.96679688 135.13671875 79.96679688 135.13671875 C79.96679688 135.79671875 79.96679688 136.45671875 79.96679688 137.13671875 C78.99742187 137.42546875 78.02804687 137.71421875 77.02929688 138.01171875 C73.86015484 138.77886557 73.86015484 138.77886557 72.96679688 141.13671875 C69.96679688 143.13671875 69.96679688 143.13671875 67.40429688 142.94921875 C64.96679688 142.13671875 64.96679688 142.13671875 62.96679688 139.13671875 C62.41862305 139.29970459 61.87044922 139.46269043 61.30566406 139.63061523 C58.65238265 140.20475431 56.25937009 140.24945527 53.54492188 140.234375 C52.52011719 140.23115234 51.4953125 140.22792969 50.43945312 140.22460938 C49.37597656 140.21623047 48.3125 140.20785156 47.21679688 140.19921875 C46.13785156 140.19470703 45.05890625 140.19019531 43.94726562 140.18554688 C41.28705304 140.17377602 38.62695323 140.15733274 35.96679688 140.13671875 C35.96679688 141.12671875 35.96679688 142.11671875 35.96679688 143.13671875 C36.95679688 143.46671875 37.94679688 143.79671875 38.96679688 144.13671875 C42.11164839 149.37813794 44.96679688 155.95333258 44.96679688 162.13671875 C46.01613907 162.13005692 47.06548126 162.12339508 48.1466217 162.11653137 C58.04837323 162.05564691 67.95008664 162.01071088 77.85198307 161.98128223 C82.94233582 161.96564392 88.03253713 161.94443908 93.12280273 161.91040039 C98.03761211 161.87774164 102.95227605 161.85985194 107.86718559 161.85208702 C109.73982469 161.84655522 111.61245606 161.83575293 113.48503304 161.81952858 C116.1133236 161.79766766 118.74101753 161.79475543 121.36938477 161.79614258 C122.13903061 161.78535675 122.90867645 161.77457092 123.7016449 161.76345825 C128.83346051 161.7926564 132.36882174 162.84179252 136.96679688 165.13671875 C136.96679688 165.79671875 136.96679688 166.45671875 136.96679688 167.13671875 C138.28679687 167.46671875 139.60679687 167.79671875 140.96679688 168.13671875 C140.96679688 169.12671875 140.96679688 170.11671875 140.96679688 171.13671875 C141.62679688 171.13671875 142.28679687 171.13671875 142.96679688 171.13671875 C142.96679688 172.45671875 142.96679688 173.77671875 142.96679688 175.13671875 C143.62679688 175.13671875 144.28679687 175.13671875 144.96679688 175.13671875 C146.51950722 182.27581089 145.47124018 186.77457489 141.96679688 193.13671875 C141.30679687 193.13671875 140.64679688 193.13671875 139.96679688 193.13671875 C139.96679688 193.79671875 139.96679688 194.45671875 139.96679688 195.13671875 C138.64679688 195.46671875 137.32679688 195.79671875 135.96679688 196.13671875 C135.96679688 196.79671875 135.96679688 197.45671875 135.96679688 198.13671875 C129.96852168 200.22928474 124.56605427 200.38720453 118.24804688 200.33984375 C116.16080103 200.3503879 114.07356101 200.36214354 111.98632812 200.375 C108.72090562 200.38532273 105.45630394 200.38665463 102.19091797 200.36669922 C99.02176205 200.35191014 95.85457615 200.37440647 92.68554688 200.40234375 C91.71556763 200.38697571 90.74558838 200.37160767 89.74621582 200.35577393 C83.77902457 200.44101952 80.60545567 201.39120932 76.37336731 205.68600464 C75.67711494 206.40410812 75.67711494 206.40410812 74.96679688 207.13671875 C72.38476562 208.81640625 72.38476562 208.81640625 70.15429688 210.01171875 C69.40535156 210.42164063 68.65640625 210.8315625 67.88476562 211.25390625 C65.96679688 212.13671875 65.96679688 212.13671875 63.96679688 212.13671875 C63.63679687 212.79671875 63.30679688 213.45671875 62.96679688 214.13671875 C60.99194483 215.50702425 58.99292971 216.84344247 56.96679688 218.13671875 C56.59554687 217.74484375 56.22429687 217.35296875 55.84179688 216.94921875 C53.33416733 214.52517685 50.66086261 212.35183947 47.96679688 210.13671875 C47.96679688 211.12671875 47.96679688 212.11671875 47.96679688 213.13671875 C47.63679687 213.79671875 47.30679688 214.45671875 46.96679688 215.13671875 C46.32871094 215.12511719 45.690625 215.11351562 45.03320312 215.1015625 C44.20691406 215.09253906 43.380625 215.08351563 42.52929688 215.07421875 C41.29373047 215.05681641 41.29373047 215.05681641 40.03320312 215.0390625 C37.97515749 214.90404527 37.97515749 214.90404527 36.96679688 216.13671875 C34.78040234 216.20930821 32.59179299 216.22045658 30.40429688 216.19921875 C28.60798828 216.18568359 28.60798828 216.18568359 26.77539062 216.171875 C25.84855469 216.16027344 24.92171875 216.14867187 23.96679688 216.13671875 C23.96901749 216.70777344 23.9712381 217.27882813 23.973526 217.8671875 C23.99573483 223.83739595 24.01076832 229.80759256 24.02172852 235.77783203 C24.02674183 238.00277178 24.03355416 240.22770826 24.04223633 242.45263672 C24.05443374 245.65983896 24.06005534 248.86699745 24.06445312 252.07421875 C24.06961441 253.06099609 24.0747757 254.04777344 24.08009338 255.06445312 C24.08053151 260.51921681 23.7723647 265.74025058 22.96679688 271.13671875 C28.19560149 271.01748145 33.42425362 270.89317994 38.65283203 270.7644043 C40.42753927 270.72138207 42.20227926 270.6796877 43.97705078 270.6394043 C59.98063317 271.20204434 59.98063317 271.20204434 74.96679688 267.13671875 C76.46679688 268.51171875 76.46679688 268.51171875 77.96679688 270.13671875 C77.96679688 270.79671875 77.96679688 271.45671875 77.96679688 272.13671875 C78.95679688 272.46671875 79.94679688 272.79671875 80.96679688 273.13671875 C84.02701376 276.65933104 85.99154778 279.80016968 85.90429688 284.51171875 C84.96679688 287.13671875 84.96679688 287.13671875 82.96679688 289.13671875 C81.97679687 289.13671875 80.98679687 289.13671875 79.96679688 289.13671875 C79.96679688 289.79671875 79.96679688 290.45671875 79.96679688 291.13671875 C79.32742188 291.26046875 78.68804688 291.38421875 78.02929688 291.51171875 C77.34867188 291.71796875 76.66804687 291.92421875 75.96679688 292.13671875 C75.63679687 292.79671875 75.30679688 293.45671875 74.96679688 294.13671875 C70.78740426 297.32101788 67.05710618 298.91127392 61.96679688 300.13671875 C59.95971252 300.63521982 57.95535129 301.13973197 55.95541382 301.66624451 C50.24542438 303.07481597 44.93226619 303.38869069 39.06835938 303.296875 C37.69494888 303.28907265 37.69494888 303.28907265 36.29379272 303.28111267 C33.39295784 303.26346025 30.4924929 303.23234607 27.59179688 303.19921875 C11.24788533 302.92791212 11.24788533 302.92791212 -5.03320312 304.13671875 C-6.67873161 304.30636878 -8.32453244 304.47341779 -9.97070312 304.63671875 C-15.16909424 305.18084941 -20.01822467 306.69172496 -25.03320312 308.13671875 C-29.69986979 309.47005208 -34.36653646 310.80338542 -39.03320312 312.13671875 C-40.25007812 312.48734375 -41.46695313 312.83796875 -42.72070312 313.19921875 C-45.1521748 313.88737111 -47.57669975 314.54715794 -50.03320312 315.13671875 C-50.03320312 310.46081708 -49.15318114 309.44022489 -46.03320312 306.13671875 C-45.37320313 306.13671875 -44.71320313 306.13671875 -44.03320312 306.13671875 C-44.03320312 305.47671875 -44.03320312 304.81671875 -44.03320312 304.13671875 C-43.37320313 304.13671875 -42.71320313 304.13671875 -42.03320312 304.13671875 C-42.03320312 303.47671875 -42.03320312 302.81671875 -42.03320312 302.13671875 C-41.37320313 302.13671875 -40.71320313 302.13671875 -40.03320312 302.13671875 C-40.03320312 301.47671875 -40.03320312 300.81671875 -40.03320312 300.13671875 C-38.49414062 298.65625 -38.49414062 298.65625 -36.40820312 296.94921875 C-31.60902178 292.86354401 -27.518255 288.6294844 -24.28320312 283.19921875 C-23.87070312 282.51859375 -23.45820312 281.83796875 -23.03320312 281.13671875 C-22.37320313 281.13671875 -21.71320313 281.13671875 -21.03320312 281.13671875 C-21.36320313 280.14671875 -21.69320312 279.15671875 -22.03320312 278.13671875 C-21.72511719 277.5746875 -21.41703125 277.01265625 -21.09960938 276.43359375 C-19.56648409 273.13147776 -19.86785578 269.94740627 -19.97070312 266.38671875 C-20.10350547 257.92518064 -19.66893564 249.57152692 -19.03320312 241.13671875 C-22.92224239 242.03026169 -26.37795241 243.53353861 -30.03320312 245.13671875 C-43.3979638 250.7639864 -58.49356664 255.27271878 -73.03320312 252.13671875 C-73.77183594 251.97816406 -74.51046875 251.81960938 -75.27148438 251.65625 C-76.83060017 251.316868 -78.38801501 250.96954816 -79.94335938 250.61328125 C-82.29832076 250.07626202 -84.66186757 249.59568692 -87.03320312 249.13671875 C-87.03320312 248.47671875 -87.03320312 247.81671875 -87.03320312 247.13671875 C-87.59007812 247.34296875 -88.14695312 247.54921875 -88.72070312 247.76171875 C-91.73543453 248.25059411 -93.34795672 247.51562907 -96.03320312 246.13671875 C-96.36320312 245.47671875 -96.69320312 244.81671875 -97.03320312 244.13671875 C-97.73445313 244.21921875 -98.43570313 244.30171875 -99.15820312 244.38671875 C-103.02969943 244.0500669 -104.92205283 242.42246182 -108.03320312 240.13671875 C-109.14695312 239.43546875 -110.26070313 238.73421875 -111.40820312 238.01171875 C-112.70757812 237.08359375 -112.70757812 237.08359375 -114.03320312 236.13671875 C-114.03320312 235.47671875 -114.03320312 234.81671875 -114.03320312 234.13671875 C-115.02320313 233.80671875 -116.01320313 233.47671875 -117.03320312 233.13671875 C-120.73287393 228.27429426 -121.83398242 224.16728711 -121.62304688 218.05859375 C-120.1976397 210.99763635 -115.77709901 205.27829147 -110.03320312 201.13671875 C-111.23855713 201.12737305 -112.44391113 201.11802734 -113.68579102 201.10839844 C-118.17948677 201.06837359 -122.67250688 201.00258026 -127.16577148 200.92919922 C-129.10643806 200.9010619 -131.0472177 200.87981149 -132.98803711 200.86572266 C-135.78623025 200.84419257 -138.58307441 200.79749157 -141.38085938 200.74609375 C-142.24155533 200.74486511 -143.10225128 200.74363647 -143.98902893 200.74237061 C-150.91086026 200.57598594 -155.04829924 198.71825725 -160.34570312 194.13671875 C-164.11948706 189.66408594 -165.31754668 185.10956029 -165.26367188 179.26953125 C-164.81807254 175.14584924 -162.86995786 171.81022823 -161.03320312 168.13671875 C-160.37320312 168.13671875 -159.71320313 168.13671875 -159.03320312 168.13671875 C-159.03320312 167.47671875 -159.03320312 166.81671875 -159.03320312 166.13671875 C-158.04320312 166.13671875 -157.05320312 166.13671875 -156.03320312 166.13671875 C-155.53820312 165.14671875 -155.53820312 165.14671875 -155.03320312 164.13671875 C-151.48957304 162.37347173 -148.57961283 161.88176208 -144.64848328 161.85824585 C-143.04789818 161.84150063 -143.04789818 161.84150063 -141.41497803 161.82441711 C-140.25476135 161.82225693 -139.09454468 161.82009674 -137.89916992 161.81787109 C-136.6694899 161.80782547 -135.43980988 161.79777985 -134.17286682 161.78742981 C-130.80959705 161.76186731 -127.44649538 161.74499434 -124.08316779 161.73200178 C-120.56506555 161.7163509 -117.04704837 161.68956694 -113.52900696 161.66397095 C-106.87100366 161.61721776 -100.21298431 161.58045695 -93.55490094 161.54729807 C-85.97325634 161.5090522 -78.39169724 161.45964851 -70.81012475 161.40931392 C-55.21787938 161.30604555 -39.62558603 161.21676864 -24.03320312 161.13671875 C-25.46656926 160.33645858 -26.90041966 159.53706577 -28.33447266 158.73803711 C-29.13289581 158.29278183 -29.93131897 157.84752655 -30.75393677 157.38877869 C-33.47730115 155.89276422 -36.24192839 154.50142786 -39.03320312 153.13671875 C-50.03320312 147.63671875 -50.03320312 147.63671875 -61.03320312 142.13671875 C-61.95746094 141.68167969 -62.88171875 141.22664062 -63.83398438 140.7578125 C-67.05369833 139.12633351 -70.2070627 137.41906001 -73.34570312 135.63671875 C-74.39371094 135.04890625 -75.44171875 134.46109375 -76.52148438 133.85546875 C-79.03320312 132.13671875 -79.03320312 132.13671875 -80.03320312 129.13671875 C-81.35973489 128.77727143 -82.69455713 128.44803177 -84.03320312 128.13671875 C-89.43068452 124.33809367 -93.54336362 119.69865047 -97.03320312 114.13671875 C-97.03320312 113.47671875 -97.03320312 112.81671875 -97.03320312 112.13671875 C-97.69320312 112.13671875 -98.35320312 112.13671875 -99.03320312 112.13671875 C-101.48017978 107.77471688 -102.53589661 104.10978391 -103.03320312 99.13671875 C-103.69320312 99.13671875 -104.35320312 99.13671875 -105.03320312 99.13671875 C-107.47388109 81.13671875 -107.47388109 81.13671875 -105.03320312 73.13671875 C-104.37320313 73.13671875 -103.71320313 73.13671875 -103.03320312 73.13671875 C-103.36320312 72.14671875 -103.69320312 71.15671875 -104.03320312 70.13671875 C-101.99781993 64.48287653 -99.06249434 59.31371179 -96.03320312 54.13671875 C-95.66839844 53.50765625 -95.30359375 52.87859375 -94.92773438 52.23046875 C-93.90820312 50.57421875 -93.90820312 50.57421875 -92.03320312 48.13671875 C-91.04320312 48.13671875 -90.05320312 48.13671875 -89.03320312 48.13671875 C-88.95070313 47.51796875 -88.86820312 46.89921875 -88.78320312 46.26171875 C-88.03320312 44.13671875 -88.03320312 44.13671875 -85.97070312 42.88671875 C-85.33132813 42.63921875 -84.69195312 42.39171875 -84.03320312 42.13671875 C-84.03320312 41.47671875 -84.03320312 40.81671875 -84.03320312 40.13671875 C-83.37320313 40.13671875 -82.71320313 40.13671875 -82.03320312 40.13671875 C-82.03320312 39.47671875 -82.03320312 38.81671875 -82.03320312 38.13671875 C-81.37320313 38.13671875 -80.71320313 38.13671875 -80.03320312 38.13671875 C-79.37320313 36.81671875 -78.71320313 35.49671875 -78.03320312 34.13671875 C-77.37320313 34.13671875 -76.71320313 34.13671875 -76.03320312 34.13671875 C-75.70320313 33.14671875 -75.37320313 32.15671875 -75.03320312 31.13671875 C-74.04320312 30.80671875 -73.05320312 30.47671875 -72.03320312 30.13671875 C-71.43507813 29.53859375 -70.83695312 28.94046875 -70.22070312 28.32421875 C-67.70349516 25.80701078 -65.06969682 23.98501926 -62.03320312 22.13671875 C-61.37320313 22.13671875 -60.71320313 22.13671875 -60.03320312 22.13671875 C-59.70320312 21.47671875 -59.37320313 20.81671875 -59.03320312 20.13671875 C-45.72122541 11.13671875 -45.72122541 11.13671875 -39.03320312 11.13671875 C-39.03320312 10.47671875 -39.03320312 9.81671875 -39.03320312 9.13671875 C-37.03320312 8.47005208 -35.03320312 7.80338542 -33.03320312 7.13671875 C-32.06382812 6.80671875 -31.09445312 6.47671875 -30.09570312 6.13671875 C-26.76128217 5.04792823 -23.41467263 4.06953792 -20.03320312 3.13671875 C-19.35773438 2.94851563 -18.68226563 2.7603125 -17.98632812 2.56640625 C-14.23284429 1.5645365 -10.90947245 1.01925604 -7.03320312 1.13671875 C-5.15686053 -0.73962384 -2.49237813 0.00425684 0 0 Z M-68.03320312 200.13671875 C-67.04320312 201.12671875 -66.05320312 202.11671875 -65.03320312 203.13671875 C-63.71320313 203.13671875 -62.39320313 203.13671875 -61.03320312 203.13671875 C-60.70320312 203.79671875 -60.37320313 204.45671875 -60.03320312 205.13671875 C-58.08930043 205.86695346 -58.08930043 205.86695346 -55.78320312 206.32421875 C-54.63078125 206.59298828 -54.63078125 206.59298828 -53.45507812 206.8671875 C-48.68134624 207.39845766 -45.29448271 205.94552329 -41.22070312 203.57421875 C-40.43050781 203.11917969 -39.6403125 202.66414062 -38.82617188 202.1953125 C-38.23449219 201.84597656 -37.6428125 201.49664063 -37.03320312 201.13671875 C-37.03320312 200.80671875 -37.03320312 200.47671875 -37.03320312 200.13671875 C-47.26320313 200.13671875 -57.49320313 200.13671875 -68.03320312 200.13671875 Z " fill="#FBFAFB" transform="translate(579.033203125,368.86328125)"/>
<path d="M0 0 C2.640625 2.203125 2.640625 2.203125 3.73828125 4.69140625 C3.56815502 9.06705288 0.65634309 10.84717319 -2.390625 13.7109375 C-7.78574351 18.23999751 -13.54200142 22.2393669 -19.359375 26.203125 C-20.019375 25.873125 -20.679375 25.543125 -21.359375 25.203125 C-21.359375 23.553125 -21.359375 21.903125 -21.359375 20.203125 C-38.00283548 12.42862872 -55.61096201 10.61258273 -73.359375 16.203125 C-77.23516619 17.9198216 -80.79947855 19.90760556 -84.359375 22.203125 C-85.7515625 23.1003125 -85.7515625 23.1003125 -87.171875 24.015625 C-93.86979264 30.71354264 -97.62392421 38.23372199 -97.734375 47.765625 C-97.50138562 60.04934272 -94.02507291 69.44945046 -85.359375 78.203125 C-76.34204923 86.8392305 -65.5112045 92.75555612 -54.359375 98.203125 C-59.02862458 102.33931015 -64.32303376 105.1065829 -69.796875 108.015625 C-71.1900293 108.7880957 -71.1900293 108.7880957 -72.61132812 109.57617188 C-79.42256917 113.19752209 -79.42256917 113.19752209 -83.625 113.22265625 C-98.13352209 107.81305016 -113.32481243 97.42685591 -120.359375 83.203125 C-124.59354205 73.00031284 -124.49290121 63.49936377 -120.6796875 53.1796875 C-109.016386 26.88549891 -82.33035412 10.82782037 -56.734375 0.390625 C-39.80887388 -5.75655087 -16.6883144 -8.9263077 0 0 Z " fill="#044CAD" transform="translate(609.359375,386.796875)"/>
<path d="M0 0 C1.68820643 0.00934471 3.37642656 0.01645297 5.06465149 0.0214386 C9.4724277 0.0403783 13.8793583 0.08936331 18.2868042 0.1449585 C22.79850837 0.1964352 27.31035139 0.21901284 31.82226562 0.24414062 C40.64882223 0.29749759 49.47469606 0.38264819 58.30078125 0.48828125 C54.96744792 3.15494792 51.63411458 5.82161458 48.30078125 8.48828125 C47.65278564 8.16230957 47.00479004 7.83633789 46.3371582 7.50048828 C42.43599216 6.19999504 38.78011532 6.23946208 34.71875 6.29296875 C33.49748161 6.29721359 33.49748161 6.29721359 32.25154114 6.30154419 C29.66363525 6.31269541 27.07608167 6.33779042 24.48828125 6.36328125 C22.72852064 6.3733176 20.96875458 6.38244231 19.20898438 6.390625 C14.90611527 6.41261815 10.60350789 6.44711289 6.30078125 6.48828125 C6.30300186 7.10865265 6.30522247 7.72902405 6.30751038 8.36819458 C6.3298274 14.89080218 6.34479671 21.41339874 6.35571289 27.93603516 C6.36070688 30.36247194 6.36750438 32.78890577 6.3762207 35.21533203 C6.50929192 73.24238893 6.50929192 73.24238893 -0.33203125 80.1328125 C-0.78320312 80.58011719 -1.234375 81.02742187 -1.69921875 81.48828125 C6.19458433 81.53488166 14.08832872 81.57028984 21.98223591 81.59190559 C25.6487703 81.60228667 29.3152097 81.61634038 32.98168945 81.63916016 C36.52841801 81.66109328 40.07505594 81.6728924 43.62184715 81.67803574 C45.61514147 81.68346061 47.60839998 81.69903977 49.60163879 81.71487427 C57.06079567 81.71578264 64.02106812 81.14548132 71.30078125 79.48828125 C64.49620226 87.75098431 52.2860783 92.54981838 41.79469299 93.7828064 C39.23356423 93.9088874 36.68526858 93.95529149 34.12109375 93.96484375 C33.18707733 93.98042328 32.25306091 93.99600281 31.29074097 94.01205444 C28.3357626 94.059094 25.38101151 94.08714162 22.42578125 94.11328125 C18.53245516 94.16192382 14.63927528 94.21833283 10.74609375 94.27734375 C9.81812988 94.29021927 8.89016602 94.30309479 7.93408203 94.31636047 C2.14460181 94.41094852 -3.58120406 94.70879266 -9.34619141 95.27441406 C-12.56370027 95.56685417 -15.71899802 95.58589234 -18.94921875 95.55078125 C-20.0475 95.54175781 -21.14578125 95.53273438 -22.27734375 95.5234375 C-23.47617187 95.50603516 -23.47617187 95.50603516 -24.69921875 95.48828125 C-23.95865234 94.09416016 -23.95865234 94.09416016 -23.203125 92.671875 C-22.55544955 91.4234571 -21.90834444 90.1747432 -21.26171875 88.92578125 C-20.77348633 88.0121582 -20.77348633 88.0121582 -20.27539062 87.08007812 C-19.80649414 86.16645508 -19.80649414 86.16645508 -19.328125 85.234375 C-19.0401001 84.68450928 -18.7520752 84.13464355 -18.45532227 83.56811523 C-16.59762374 78.45809464 -16.56511616 72.92538555 -16.49389648 67.54321289 C-16.47904709 66.56144577 -16.47904709 66.56144577 -16.46389771 65.55984497 C-16.43261847 63.42274439 -16.40766004 61.28562168 -16.3828125 59.1484375 C-16.36221386 57.65628014 -16.34121668 56.16412822 -16.31983948 54.67198181 C-16.26491902 50.76435796 -16.21537868 46.8566841 -16.16699219 42.94897461 C-16.11655644 38.95356856 -16.06098616 34.95823421 -16.00585938 30.96289062 C-15.89864564 23.13808012 -15.79759577 15.31320875 -15.69921875 7.48828125 C-19.98921875 7.48828125 -24.27921875 7.48828125 -28.69921875 7.48828125 C-28.69921875 6.82828125 -28.69921875 6.16828125 -28.69921875 5.48828125 C-19.34174128 -0.15860348 -10.54102766 -0.1728889 0 0 Z " fill="#FF9350" transform="translate(585.69921875,567.51171875)"/>
<path d="M0 0 C0 1.32 0 2.64 0 4 C-2.23828125 5.67578125 -2.23828125 5.67578125 -5.3125 7.3125 C-11.37517648 10.64300717 -17.19555902 14.24082464 -23 18 C-23.33 16.35 -23.66 14.7 -24 13 C-25.41925781 13.04543945 -25.41925781 13.04543945 -26.8671875 13.09179688 C-30.46053485 13.20615994 -34.05398054 13.31714988 -37.64746094 13.42724609 C-39.1872021 13.47486366 -40.72691723 13.52333276 -42.26660156 13.57275391 C-44.51100022 13.64463334 -46.75548251 13.71319315 -49 13.78125 C-49.99169189 13.81406067 -49.99169189 13.81406067 -51.00341797 13.84753418 C-58.67533652 14.07358016 -66.31258609 14 -74 14 C-74 25.22 -74 36.44 -74 48 C-81.26 48 -88.52 48 -96 48 C-96 36.78 -96 25.56 -96 14 C-102.27 14 -108.54 14 -115 14 C-102.64333533 4.11466827 -91.74178253 0.79772475 -76.19140625 0.78125 C-74.52857763 0.7511485 -72.86580722 0.71766649 -71.20310974 0.68103027 C-66.86804228 0.59457567 -62.53377205 0.55393735 -58.19799805 0.52355957 C-53.82616518 0.48447834 -49.45522899 0.40010123 -45.08398438 0.3203125 C-30.05579125 0.0613684 -15.03026834 -0.02673698 0 0 Z " fill="#FF924F" transform="translate(666,485)"/>
<path d="M0 0 C0.2475 1.546875 0.2475 1.546875 0.5 3.125 C2.00635704 8.24248693 5.5301243 10.42751192 10 13 C25.50888776 21.00886929 45.15871869 22.64587071 62 18 C63.32 18 64.64 18 66 18 C66 20.64 66 23.28 66 26 C43.96974206 37.14086155 23.24575275 44.99350812 -1.31518555 37.06298828 C-19.46489279 30.80266081 -19.46489279 30.80266081 -24 24 C-24.2461768 20.92279005 -24.24283289 19.73423236 -23 17 C-19.97289787 13.62105033 -16.5280107 10.83985477 -13 8 C-12.0821875 7.22398437 -11.164375 6.44796875 -10.21875 5.6484375 C-3.43264134 0 -3.43264134 0 0 0 Z " fill="#034CAD" transform="translate(495,568)"/>
<path d="M0 0 C0.79148437 -0.01417969 1.58296875 -0.02835938 2.3984375 -0.04296875 C4.625 0.1875 4.625 0.1875 7.625 2.1875 C7.46 3.26 7.295 4.3325 7.125 5.4375 C6.53689085 9.21778752 6.53689085 9.21778752 6.625 13.1875 C7.90618697 14.73710501 7.90618697 14.73710501 9.625 15.9375 C10.615 16.68 11.605 17.4225 12.625 18.1875 C12.295 18.8475 11.965 19.5075 11.625 20.1875 C9.9375 20.0625 9.9375 20.0625 7.625 19.1875 C5.95833333 17.1875 4.29166667 15.1875 2.625 13.1875 C0.45968832 12.24313651 0.45968832 12.24313651 -1.375 12.1875 C-1.375 14.1675 -1.375 16.1475 -1.375 18.1875 C-0.715 18.5175 -0.055 18.8475 0.625 19.1875 C-1.355 19.5175 -3.335 19.8475 -5.375 20.1875 C-5.22160156 19.67703125 -5.06820312 19.1665625 -4.91015625 18.640625 C-4.20594597 15.4125662 -4.02611796 12.23331999 -3.8125 8.9375 C-3.72871094 7.67421875 -3.64492188 6.4109375 -3.55859375 5.109375 C-3.49800781 4.14515625 -3.43742188 3.1809375 -3.375 2.1875 C-4.035 1.8575 -4.695 1.5275 -5.375 1.1875 C-3.79539731 -0.39210269 -2.17963184 0.01763456 0 0 Z " fill="#E7E7E7" transform="translate(608.375,538.8125)"/>
<path d="M0 0 C0.89589844 -0.01417969 1.79179687 -0.02835938 2.71484375 -0.04296875 C5.0625 0.1875 5.0625 0.1875 7.0625 2.1875 C7.4382916 6.50910334 7.06045425 8.19159149 5.0625 12.1875 C7.3725 14.1675 9.6825 16.1475 12.0625 18.1875 C11.7325 18.8475 11.4025 19.5075 11.0625 20.1875 C6.57550029 18.81647231 4.91689265 16.80306402 2.0625 13.1875 C1.0725 13.1875 0.0825 13.1875 -0.9375 13.1875 C-1.2675 14.8375 -1.5975 16.4875 -1.9375 18.1875 C-1.2775 18.5175 -0.6175 18.8475 0.0625 19.1875 C-1.5875 19.5175 -3.2375 19.8475 -4.9375 20.1875 C-4.4425 11.2775 -4.4425 11.2775 -3.9375 2.1875 C-4.5975 1.8575 -5.2575 1.5275 -5.9375 1.1875 C-4.27188601 -0.47811399 -2.27787295 0.01634055 0 0 Z " fill="#E7E7E7" transform="translate(473.9375,538.8125)"/>
<path d="M0 0 C0.66 0 1.32 0 2 0 C7.12357245 5.76401901 8.94169683 11.48604751 10 19 C6.7 19 3.4 19 0 19 C0 12.73 0 6.46 0 0 Z " fill="#1E5DB5" transform="translate(601,514)"/>
<path d="M0 0 C0.63228516 0.86238281 0.63228516 0.86238281 1.27734375 1.7421875 C2.96262798 3.95101808 4.72713033 6.0398932 6.5625 8.125 C7.16191406 8.80820312 7.76132812 9.49140625 8.37890625 10.1953125 C9.54888864 11.49779892 10.76199159 12.76199159 12 14 C12.33 10.04 12.66 6.08 13 2 C12.34 1.67 11.68 1.34 11 1 C12.32 0.67 13.64 0.34 15 0 C15.08089542 2.77141717 15.14044062 5.54047819 15.1875 8.3125 C15.21263672 9.09818359 15.23777344 9.88386719 15.26367188 10.69335938 C15.27333984 11.45068359 15.28300781 12.20800781 15.29296875 12.98828125 C15.3086792 13.68477783 15.32438965 14.38127441 15.34057617 15.09887695 C14.90238443 17.54489783 13.86562642 18.42702086 12 20 C11.52949219 19.45730469 11.05898438 18.91460938 10.57421875 18.35546875 C9.95160156 17.64003906 9.32898438 16.92460938 8.6875 16.1875 C8.07261719 15.47980469 7.45773437 14.77210938 6.82421875 14.04296875 C5.27480709 12.30776041 3.64493533 10.64493533 2 9 C1.67 12.63 1.34 16.26 1 20 C0.01 19.67 -0.98 19.34 -2 19 C-1.85982174 16.02046641 -1.71313658 13.04150696 -1.5625 10.0625 C-1.52318359 9.21236328 -1.48386719 8.36222656 -1.44335938 7.48632812 C-1.40146484 6.67744141 -1.35957031 5.86855469 -1.31640625 5.03515625 C-1.27974854 4.2862915 -1.24309082 3.53742676 -1.20532227 2.76586914 C-1 1 -1 1 0 0 Z " fill="#191919" transform="translate(547,539)"/>
<path d="M0 0 C3.24736241 3.24736241 3.53025443 7.93947022 4.5 12.32226562 C4.9433264 14.22891548 5.4660877 16.11670777 6 18 C6.66 18.33 7.32 18.66 8 19 C6.35 19.33 4.7 19.66 3 20 C2.67 17.69 2.34 15.38 2 13 C-0.31 13 -2.62 13 -5 13 C-5.66 15.31 -6.32 17.62 -7 20 C-7.99 19.67 -8.98 19.34 -10 19 C-8 15 -6 11 -4 7 C-3.45988281 5.89914062 -2.91976563 4.79828125 -2.36328125 3.6640625 C-1 1 -1 1 0 0 Z " fill="#252525" transform="translate(497,539)"/>
<path d="M0 0 C0.79148437 -0.01417969 1.58296875 -0.02835938 2.3984375 -0.04296875 C4.625 0.1875 4.625 0.1875 7.625 2.1875 C8.09402162 6.5024989 7.61673794 8.20402411 5.625 12.1875 C7.935 14.1675 10.245 16.1475 12.625 18.1875 C12.295 18.8475 11.965 19.5075 11.625 20.1875 C8.0878562 19.62617066 6.63238321 18.49192253 4.375 15.75 C3.85421875 15.13253906 3.3334375 14.51507812 2.796875 13.87890625 C1.625 12.1875 1.625 12.1875 1.625 10.1875 C2.615 9.5275 3.605 8.8675 4.625 8.1875 C4.295 6.5375 3.965 4.8875 3.625 3.1875 C1.975 2.8575 0.325 2.5275 -1.375 2.1875 C-1.375 7.4675 -1.375 12.7475 -1.375 18.1875 C-0.715 18.5175 -0.055 18.8475 0.625 19.1875 C-1.025 19.5175 -2.675 19.8475 -4.375 20.1875 C-3.88 11.2775 -3.88 11.2775 -3.375 2.1875 C-4.035 1.8575 -4.695 1.5275 -5.375 1.1875 C-3.79539731 -0.39210269 -2.17963184 0.01763456 0 0 Z " fill="#383838" transform="translate(646.375,538.8125)"/>
<path d="M0 0 C5.61 0 11.22 0 17 0 C16.67 0.66 16.34 1.32 16 2 C13.69 2 11.38 2 9 2 C8.94616152 4.45862401 8.90640962 6.9160755 8.875 9.375 C8.85824219 10.07367187 8.84148438 10.77234375 8.82421875 11.4921875 C8.80655733 13.32897486 8.89696739 15.16601963 9 17 C9.66 17.66 10.32 18.32 11 19 C10.67 19.33 10.34 19.66 10 20 C8.35 20 6.7 20 5 20 C5.495 11.09 5.495 11.09 6 2 C3.69 2 1.38 2 -1 2 C-0.67 1.34 -0.34 0.68 0 0 Z " fill="#383838" transform="translate(567,539)"/>
<path d="M0 0 C5.94 0 11.88 0 18 0 C18 3.3 18 6.6 18 10 C15.3725162 8.71319131 12.74803317 7.42082322 10.125 6.125 C9.37863281 5.76019531 8.63226562 5.39539063 7.86328125 5.01953125 C7.14785156 4.66503906 6.43242188 4.31054688 5.6953125 3.9453125 C5.03547363 3.62062988 4.37563477 3.29594727 3.69580078 2.96142578 C2 2 2 2 0 0 Z " fill="#1E5DB5" transform="translate(543,508)"/>
<path d="M0 0 C0.89589844 -0.01417969 1.79179688 -0.02835938 2.71484375 -0.04296875 C5.0625 0.1875 5.0625 0.1875 7.0625 2.1875 C7.1875 5.3125 7.1875 5.3125 7.0625 8.1875 C6.0725 8.6825 6.0725 8.6825 5.0625 9.1875 C4.7325 7.2075 4.4025 5.2275 4.0625 3.1875 C2.0825 2.5275 0.1025 1.8675 -1.9375 1.1875 C-1.9375 6.7975 -1.9375 12.4075 -1.9375 18.1875 C-1.2775 18.5175 -0.6175 18.8475 0.0625 19.1875 C-1.9175 19.5175 -3.8975 19.8475 -5.9375 20.1875 C-5.96638514 17.04168577 -5.98425923 13.89590531 -6 10.75 C-6.00837891 9.85216797 -6.01675781 8.95433594 -6.02539062 8.02929688 C-6.02861328 7.17529297 -6.03183594 6.32128906 -6.03515625 5.44140625 C-6.04301147 4.25526733 -6.04301147 4.25526733 -6.05102539 3.04516602 C-5.81753307 -0.77557173 -3.23816899 0.02322933 0 0 Z " fill="#383838" transform="translate(629.9375,538.8125)"/>
<path d="M0 0 C1.51400391 0.01740234 1.51400391 0.01740234 3.05859375 0.03515625 C4.07050781 0.04417969 5.08242188 0.05320312 6.125 0.0625 C7.29869141 0.07990234 7.29869141 0.07990234 8.49609375 0.09765625 C8.16609375 0.75765625 7.83609375 1.41765625 7.49609375 2.09765625 C5.18609375 2.09765625 2.87609375 2.09765625 0.49609375 2.09765625 C0.49609375 4.40765625 0.49609375 6.71765625 0.49609375 9.09765625 C2.47609375 9.09765625 4.45609375 9.09765625 6.49609375 9.09765625 C6.49609375 9.42765625 6.49609375 9.75765625 6.49609375 10.09765625 C4.51609375 10.09765625 2.53609375 10.09765625 0.49609375 10.09765625 C0.49609375 12.73765625 0.49609375 15.37765625 0.49609375 18.09765625 C2.14609375 18.42765625 3.79609375 18.75765625 5.49609375 19.09765625 C5.49609375 19.42765625 5.49609375 19.75765625 5.49609375 20.09765625 C2.85609375 20.09765625 0.21609375 20.09765625 -2.50390625 20.09765625 C-2.69985301 16.95228857 -2.88424635 13.80635011 -3.06640625 10.66015625 C-3.12248047 9.76232422 -3.17855469 8.86449219 -3.23632812 7.93945312 C-3.28466797 7.08544922 -3.33300781 6.23144531 -3.3828125 5.3515625 C-3.42994385 4.56080322 -3.4770752 3.77004395 -3.52563477 2.95532227 C-3.4913319 0.0226202 -2.91502165 0.11369039 0 0 Z " fill="#333333" transform="translate(692.50390625,538.90234375)"/>
<path d="M0 0 C1.51400391 0.01740234 1.51400391 0.01740234 3.05859375 0.03515625 C4.07050781 0.04417969 5.08242188 0.05320312 6.125 0.0625 C7.29869141 0.07990234 7.29869141 0.07990234 8.49609375 0.09765625 C8.16609375 0.75765625 7.83609375 1.41765625 7.49609375 2.09765625 C5.18609375 2.09765625 2.87609375 2.09765625 0.49609375 2.09765625 C0.49609375 4.40765625 0.49609375 6.71765625 0.49609375 9.09765625 C2.47609375 9.09765625 4.45609375 9.09765625 6.49609375 9.09765625 C6.49609375 9.42765625 6.49609375 9.75765625 6.49609375 10.09765625 C4.51609375 10.09765625 2.53609375 10.09765625 0.49609375 10.09765625 C0.49609375 12.73765625 0.49609375 15.37765625 0.49609375 18.09765625 C2.14609375 18.42765625 3.79609375 18.75765625 5.49609375 19.09765625 C5.49609375 19.42765625 5.49609375 19.75765625 5.49609375 20.09765625 C2.85609375 20.09765625 0.21609375 20.09765625 -2.50390625 20.09765625 C-2.69985301 16.95228857 -2.88424635 13.80635011 -3.06640625 10.66015625 C-3.12248047 9.76232422 -3.17855469 8.86449219 -3.23632812 7.93945312 C-3.28466797 7.08544922 -3.33300781 6.23144531 -3.3828125 5.3515625 C-3.42994385 4.56080322 -3.4770752 3.77004395 -3.52563477 2.95532227 C-3.4913319 0.0226202 -2.91502165 0.11369039 0 0 Z " fill="#2B2B2B" transform="translate(590.50390625,538.90234375)"/>
<path d="M0 0 C0.89589844 -0.01417969 1.79179687 -0.02835938 2.71484375 -0.04296875 C5.0625 0.1875 5.0625 0.1875 7.0625 2.1875 C7.1875 5.3125 7.1875 5.3125 7.0625 8.1875 C6.0725 8.1875 5.0825 8.1875 4.0625 8.1875 C3.7325 6.5375 3.4025 4.8875 3.0625 3.1875 C1.4125 2.8575 -0.2375 2.5275 -1.9375 2.1875 C-1.9375 7.4675 -1.9375 12.7475 -1.9375 18.1875 C-1.2775 18.5175 -0.6175 18.8475 0.0625 19.1875 C-1.5875 19.5175 -3.2375 19.8475 -4.9375 20.1875 C-4.4425 11.2775 -4.4425 11.2775 -3.9375 2.1875 C-4.5975 1.8575 -5.2575 1.5275 -5.9375 1.1875 C-4.27188601 -0.47811399 -2.27787295 0.01634055 0 0 Z " fill="#171717" transform="translate(473.9375,538.8125)"/>
<path d="M0 0 C0.79148437 -0.01417969 1.58296875 -0.02835938 2.3984375 -0.04296875 C4.625 0.1875 4.625 0.1875 7.625 2.1875 C7.295 4.4975 6.965 6.8075 6.625 9.1875 C5.965 8.8575 5.305 8.5275 4.625 8.1875 C4 5.625 4 5.625 3.625 3.1875 C1.975 2.8575 0.325 2.5275 -1.375 2.1875 C-1.375 7.4675 -1.375 12.7475 -1.375 18.1875 C-0.715 18.5175 -0.055 18.8475 0.625 19.1875 C-1.355 19.5175 -3.335 19.8475 -5.375 20.1875 C-5.22160156 19.67703125 -5.06820312 19.1665625 -4.91015625 18.640625 C-4.20594597 15.4125662 -4.02611796 12.23331999 -3.8125 8.9375 C-3.72871094 7.67421875 -3.64492188 6.4109375 -3.55859375 5.109375 C-3.49800781 4.14515625 -3.43742188 3.1809375 -3.375 2.1875 C-4.035 1.8575 -4.695 1.5275 -5.375 1.1875 C-3.79539731 -0.39210269 -2.17963184 0.01763456 0 0 Z " fill="#282828" transform="translate(608.375,538.8125)"/>
<path d="M0 0 C1.51400391 0.01740234 1.51400391 0.01740234 3.05859375 0.03515625 C4.07050781 0.04417969 5.08242188 0.05320312 6.125 0.0625 C7.29869141 0.07990234 7.29869141 0.07990234 8.49609375 0.09765625 C8.16609375 0.75765625 7.83609375 1.41765625 7.49609375 2.09765625 C5.18609375 2.09765625 2.87609375 2.09765625 0.49609375 2.09765625 C0.49609375 4.40765625 0.49609375 6.71765625 0.49609375 9.09765625 C2.14609375 9.09765625 3.79609375 9.09765625 5.49609375 9.09765625 C5.49609375 9.42765625 5.49609375 9.75765625 5.49609375 10.09765625 C3.51609375 10.09765625 1.53609375 10.09765625 -0.50390625 10.09765625 C-0.50390625 13.06765625 -0.50390625 16.03765625 -0.50390625 19.09765625 C1.47609375 19.09765625 3.45609375 19.09765625 5.49609375 19.09765625 C5.49609375 19.42765625 5.49609375 19.75765625 5.49609375 20.09765625 C2.52609375 20.09765625 -0.44390625 20.09765625 -3.50390625 20.09765625 C-3.53074322 16.95176681 -3.55066527 13.80610354 -3.56640625 10.66015625 C-3.57478516 9.76232422 -3.58316406 8.86449219 -3.59179688 7.93945312 C-3.59501953 7.08544922 -3.59824219 6.23144531 -3.6015625 5.3515625 C-3.60941772 4.16542358 -3.60941772 4.16542358 -3.61743164 2.95532227 C-3.4390318 0.03608708 -2.92971854 0.11426359 0 0 Z " fill="#303030" transform="translate(532.50390625,538.90234375)"/>
<path d="M0 0 C2.97 0.495 2.97 0.495 6 1 C6.66 3.31 7.32 5.62 8 8 C6.8125 9.5625 6.8125 9.5625 5 11 C2.3125 10.6875 2.3125 10.6875 0 10 C0 6.7 0 3.4 0 0 Z " fill="#E7E7E7" transform="translate(628,540)"/>
<path d="M0 0 C0.24492188 0.59296875 0.48984375 1.1859375 0.7421875 1.796875 C2.20952109 4.36698726 3.72292225 5.54529966 6.125 7.25 C6.84945312 7.77078125 7.57390625 8.2915625 8.3203125 8.828125 C8.87460937 9.21484375 9.42890625 9.6015625 10 10 C9.46081337 12.55849344 9.19024496 13.79512082 7.375 15.75 C4.16865877 17.43754802 1.56651486 17.20576047 -2 17 C-2 16.01 -2 15.02 -2 14 C0.64 14 3.28 14 6 14 C6.33 12.68 6.66 11.36 7 10 C5.8553125 9.566875 5.8553125 9.566875 4.6875 9.125 C2 8 2 8 -1 6 C-1.25 3.4375 -1.25 3.4375 -1 1 C-0.67 0.67 -0.34 0.34 0 0 Z " fill="#242424" transform="translate(707,542)"/>
<path d="M0 0 C1 2 1 2 1.125 3.875 C2.57826733 7.40436351 5.67660636 8.30809051 9 10 C8.68306247 12.93167219 8.36774166 14.58982661 6.375 16.8125 C3.1686245 18.41568775 0.53249148 18.20379759 -3 18 C-3 17.01 -3 16.02 -3 15 C-0.36 15 2.28 15 5 15 C5 13.68 5 12.36 5 11 C1.535 9.02 1.535 9.02 -2 7 C-2.125 4.625 -2.125 4.625 -2 2 C-1.34 1.34 -0.68 0.68 0 0 Z " fill="#1D1D1D" transform="translate(431,541)"/>
<path d="M0 0 C1.32 0.33 2.64 0.66 4 1 C3.91249004 3.70979124 3.80555107 6.41650748 3.6875 9.125 C3.66494141 9.88554688 3.64238281 10.64609375 3.61914062 11.4296875 C3.38777001 16.30950413 2.55683672 19.70890138 0 24 C-0.66 23.67 -1.32 23.34 -2 23 C-1.67 22.34 -1.34 21.68 -1 21 C-0.84824451 19.40737934 -0.75099675 17.80935144 -0.68359375 16.2109375 C-0.64169922 15.26992188 -0.59980469 14.32890625 -0.55664062 13.359375 C-0.51732422 12.37453125 -0.47800781 11.3896875 -0.4375 10.375 C-0.39431641 9.38242187 -0.35113281 8.38984375 -0.30664062 7.3671875 C-0.20038931 4.91160162 -0.09835036 2.45591297 0 0 Z " fill="#353535" transform="translate(510,539)"/>
<path d="M0 0 C1.98 0.495 1.98 0.495 4 1 C3.67 6.61 3.34 12.22 3 18 C3.66 18.33 4.32 18.66 5 19 C3.35 19.33 1.7 19.66 0 20 C-0.19594676 16.85463232 -0.3803401 13.70869386 -0.5625 10.5625 C-0.61857422 9.66466797 -0.67464844 8.76683594 -0.73242188 7.84179688 C-0.78076172 6.98779297 -0.82910156 6.13378906 -0.87890625 5.25390625 C-0.9260376 4.46314697 -0.97316895 3.6723877 -1.02172852 2.85766602 C-1 1 -1 1 0 0 Z " fill="#070707" transform="translate(459,539)"/>
<path d="M0 0 C2.0625 0.4375 2.0625 0.4375 4 1 C3.67 1.33 3.34 1.66 3 2 C2.90090698 4.33160055 2.87029496 6.66629942 2.875 9 C2.87242187 10.27875 2.86984375 11.5575 2.8671875 12.875 C2.64139107 15.86687244 2.64139107 15.86687244 4 17 C6.32817964 17.36760731 8.6618385 17.70241581 11 18 C9 20 9 20 5.5 20.3125 C4.345 20.209375 3.19 20.10625 2 20 C-0.46662244 16.30006635 -0.47969937 13.17458392 -0.6875 8.875 C-0.73455078 8.13378906 -0.78160156 7.39257812 -0.83007812 6.62890625 C-0.93458359 4.75466073 -0.97270642 2.87695837 -1 1 C-0.67 0.67 -0.34 0.34 0 0 Z " fill="#0E0E0E" transform="translate(446,539)"/>
<path d="M0 0 C1.65 0 3.3 0 5 0 C5.66 0.66 6.32 1.32 7 2 C6.625 4.625 6.625 4.625 6 7 C5.01 7.33 4.02 7.66 3 8 C3 8.66 3 9.32 3 10 C2.34 10 1.68 10 1 10 C0.67 10.66 0.34 11.32 0 12 C0 8.04 0 4.08 0 0 Z " fill="#EAEAEA" transform="translate(645,541)"/>
<path d="M0 0 C1.98 0.495 1.98 0.495 4 1 C3.67 6.61 3.34 12.22 3 18 C3.66 18.33 4.32 18.66 5 19 C3.35 19.33 1.7 19.66 0 20 C0.495 11.09 0.495 11.09 1 2 C0.34 1.67 -0.32 1.34 -1 1 C-0.67 0.67 -0.34 0.34 0 0 Z " fill="#1D1D1D" transform="translate(663,539)"/>
<path d="M0 0 C0.66 0.33 1.32 0.66 2 1 C1.67 2.65 1.34 4.3 1 6 C1.94875 6.28875 2.8975 6.5775 3.875 6.875 C7 8 7 8 9 10 C8.625 13.125 8.625 13.125 8 16 C7.34 15.67 6.68 15.34 6 15 C5.9175 14.401875 5.835 13.80375 5.75 13.1875 C5.12579139 10.64534793 5.12579139 10.64534793 2 9 C-1 7 -1 7 -2 4.9375 C-2 3 -2 3 0 0 Z " fill="#303030" transform="translate(675,541)"/>
<path d="M0 0 C0.66 2.31 1.32 4.62 2 7 C-0.31 7 -2.62 7 -5 7 C-5.66 9.31 -6.32 11.62 -7 14 C-7.99 13.67 -8.98 13.34 -10 13 C-9.2368139 11.39218107 -8.46412942 9.78886862 -7.6875 8.1875 C-7.25824219 7.29417969 -6.82898438 6.40085937 -6.38671875 5.48046875 C-3.32283465 0 -3.32283465 0 0 0 Z " fill="#7A7A7A" transform="translate(497,545)"/>
<path d="M0 0 C0.66 0 1.32 0 2 0 C2 5.61 2 11.22 2 17 C2.66 17.33 3.32 17.66 4 18 C2.35 18.33 0.7 18.66 -1 19 C-0.67 12.73 -0.34 6.46 0 0 Z " fill="#181818" transform="translate(643,540)"/>
<path d="M0 0 C1.62463842 -0.05395478 3.24978541 -0.09277195 4.875 -0.125 C5.77992188 -0.14820313 6.68484375 -0.17140625 7.6171875 -0.1953125 C10 0 10 0 12 2 C12.125 5.125 12.125 5.125 12 8 C11.01 8 10.02 8 9 8 C8.67 6.35 8.34 4.7 8 3 C5.03 2.67 2.06 2.34 -1 2 C-0.67 1.34 -0.34 0.68 0 0 Z " fill="#343434" transform="translate(469,539)"/>
<path d="M0 0 C2.99220268 1.36370299 5.29026529 2.94908083 7.75 5.125 C8.67039062 5.93324219 8.67039062 5.93324219 9.609375 6.7578125 C10.06828125 7.16773438 10.5271875 7.57765625 11 8 C10.67 8.66 10.34 9.32 10 10 C6.4628562 9.43867066 5.00738321 8.30442253 2.75 5.5625 C1.96882812 4.63630859 1.96882812 4.63630859 1.171875 3.69140625 C0 2 0 2 0 0 Z " fill="#1E1E1E" transform="translate(610,549)"/>
<path d="M0 0 C3.13461023 6.26922046 1.70521534 13.2950295 1 20 C0.01 19.67 -0.98 19.34 -2 19 C-1.85982174 16.02046641 -1.71313658 13.04150696 -1.5625 10.0625 C-1.52318359 9.21236328 -1.48386719 8.36222656 -1.44335938 7.48632812 C-1.40146484 6.67744141 -1.35957031 5.86855469 -1.31640625 5.03515625 C-1.27974854 4.2862915 -1.24309082 3.53742676 -1.20532227 2.76586914 C-1 1 -1 1 0 0 Z " fill="#3D3D3D" transform="translate(547,539)"/>
<path d="M0 0 C0.99 0 1.98 0 3 0 C3 5.61 3 11.22 3 17 C1.00609999 13.01219998 0.77313037 11.52852428 0.875 7.25 C0.90207031 5.77273438 0.90207031 5.77273438 0.9296875 4.265625 C0.95289063 3.51796875 0.97609375 2.7703125 1 2 C0.34 1.67 -0.32 1.34 -1 1 C-0.67 0.67 -0.34 0.34 0 0 Z " fill="#5F5F5F" transform="translate(559,539)"/>
<path d="M0 0 C2.99220268 1.36370299 5.29026529 2.94908083 7.75 5.125 C8.67039062 5.93324219 8.67039062 5.93324219 9.609375 6.7578125 C10.06828125 7.16773438 10.5271875 7.57765625 11 8 C10.67 8.66 10.34 9.32 10 10 C4.98343041 8.5666944 2.98547118 6.09436048 0 2 C0 1.34 0 0.68 0 0 Z " fill="#161616" transform="translate(475,549)"/>
<path d="M0 0 C2.99220268 1.36370299 5.29026529 2.94908083 7.75 5.125 C8.67039062 5.93324219 8.67039062 5.93324219 9.609375 6.7578125 C10.06828125 7.16773438 10.5271875 7.57765625 11 8 C10.67 8.66 10.34 9.32 10 10 C6.4628562 9.43867066 5.00738321 8.30442253 2.75 5.5625 C1.96882812 4.63630859 1.96882812 4.63630859 1.171875 3.69140625 C0 2 0 2 0 0 Z " fill="#101010" transform="translate(648,549)"/>
<path d="M0 0 C1.98 0.495 1.98 0.495 4 1 C3.67 6.61 3.34 12.22 3 18 C3.66 18.33 4.32 18.66 5 19 C4.01 19 3.02 19 2 19 C1.92652344 17.30230469 1.92652344 17.30230469 1.8515625 15.5703125 C1.77653486 14.08851661 1.70098703 12.606747 1.625 11.125 C1.57859375 10.00544922 1.57859375 10.00544922 1.53125 8.86328125 C1.44356169 4.46526812 1.44356169 4.46526812 -1 1 C-0.67 0.67 -0.34 0.34 0 0 Z " fill="#535353" transform="translate(459,539)"/>
<path d="M0 0 C0.66 0.99 1.32 1.98 2 3 C-0.71182212 5.60334924 -1.89133813 5.99456691 -5.75 6.1875 C-6.8225 6.125625 -7.895 6.06375 -9 6 C-9 5.01 -9 4.02 -9 3 C-6.36 3 -3.72 3 -1 3 C-0.67 2.01 -0.34 1.02 0 0 Z " fill="#545454" transform="translate(714,553)"/>
<path d="M0 0 C2 2 2 2 2 5 C1.071875 5.12375 1.071875 5.12375 0.125 5.25 C-2.18437567 5.81258459 -2.18437567 5.81258459 -3.25 8.0625 C-3.4975 8.701875 -3.745 9.34125 -4 10 C-3.5205537 5.78087253 -2.83374881 3.20336822 0 0 Z " fill="#2D2D2D" transform="translate(497,539)"/>
<path d="M0 0 C0.33 1.32 0.66 2.64 1 4 C-2.6441774 6.4294516 -4.71241272 6.16179575 -9 6 C-9 5.01 -9 4.02 -9 3 C-6.36 3 -3.72 3 -1 3 C-0.67 2.01 -0.34 1.02 0 0 Z " fill="#565656" transform="translate(437,553)"/>
<path d="M0 0 C2.0625 0.4375 2.0625 0.4375 4 1 C5.125 5.75 5.125 5.75 4 8 C3.34 7.67 2.68 7.34 2 7 C1.65657551 5.66923011 1.32380126 4.33568021 1 3 C0.34 2.34 -0.32 1.68 -1 1 C-0.67 0.67 -0.34 0.34 0 0 Z " fill="#272727" transform="translate(679,549)"/>
<path d="M0 0 C4.455 0.99 4.455 0.99 9 2 C7 4 7 4 3.375 4.125 C2.26125 4.08375 1.1475 4.0425 0 4 C0 2.68 0 1.36 0 0 Z " fill="#363636" transform="translate(448,555)"/>
<path d="M0 0 C1.30048841 2.60097682 1.56471422 5.13955062 2 8 C0.68 7.67 -0.64 7.34 -2 7 C-2.125 4.625 -2.125 4.625 -2 2 C-1.34 1.34 -0.68 0.68 0 0 Z " fill="#262626" transform="translate(431,541)"/>
<path d="M0 0 C0.66 0.33 1.32 0.66 2 1 C0.875 3 0.875 3 -1 5 C-4.1875 5.25 -4.1875 5.25 -7 5 C-2.25 1.125 -2.25 1.125 0 0 Z " fill="#FF9D61" transform="translate(558,494)"/>
<path d="M0 0 C1.20628008 2.33214148 2.1654738 4.49642139 3 7 C1.68 6.67 0.36 6.34 -1 6 C-1.042721 4.33388095 -1.04063832 2.66617115 -1 1 C-0.67 0.67 -0.34 0.34 0 0 Z " fill="#1C1C1C" transform="translate(707,542)"/>
<path d="M0 0 C2.31 0 4.62 0 7 0 C7 0.33 7 0.66 7 1 C4.69 1 2.38 1 0 1 C0 0.67 0 0.34 0 0 Z " fill="#919191" transform="translate(588,672)"/>
<path d="" fill="#FFFFFF" transform="translate(0,0)"/>
<path d="" fill="#FFFFFF" transform="translate(0,0)"/>
<path d="" fill="#FFFFFF" transform="translate(0,0)"/>
<path d="" fill="#FFFFFF" transform="translate(0,0)"/>
<path d="" fill="#FFFFFF" transform="translate(0,0)"/>
<path d="" fill="#FFFFFF" transform="translate(0,0)"/>
<path d="" fill="#FFFFFF" transform="translate(0,0)"/>
<path d="" fill="#FFFFFF" transform="translate(0,0)"/>
<path d="" fill="#FFFFFF" transform="translate(0,0)"/>
<path d="" fill="#FFFFFF" transform="translate(0,0)"/>
<path d="" fill="#FFFFFF" transform="translate(0,0)"/>
<path d="" fill="#FFFFFF" transform="translate(0,0)"/>
<path d="" fill="#FFFFFF" transform="translate(0,0)"/>
</svg>
